HIERARCHY
ROOT Hips
{
	OFFSET 0.000000 0.000000 0.000000 
	CHANNELS 6 Xposition Yposition Zposition Yrotation Xrotation Zrotation
	JOINT Spine
	{
		OFFSET 0.000000 0.072080 0.012321 
		CHANNELS 3 Xrotation Yrotation Zrotation
		JOINT Spine1
		{
			OFFSET 0.000000 0.126984 -0.001294 
			CHANNELS 3 Xrotation Yrotation Zrotation
			JOINT Spine2
			{
				OFFSET 0.000000 0.106559 -0.010096 
				CHANNELS 3 Xrotation Yrotation Zrotation
				JOINT Neck
				{
					OFFSET 0.000000 0.108417 -0.034017 
					CHANNELS 3 Xrotation Yrotation Zrotation
					JOINT Neck1
					{
						OFFSET 0.000000 0.033906 0.007241 
						CHANNELS 3 Xrotation Yrotation Zrotation
						JOINT Head
						{
							OFFSET 0.000000 0.031458 0.006707 
							CHANNELS 3 Xrotation Yrotation Zrotation
							End Site
							{
								OFFSET 0.000000 0.179920 0.000962 
							}
						}
					}
				}
				JOINT LeftShoulder
				{
					OFFSET 0.048002 0.079586 -0.029634 
					CHANNELS 3 Zrotation Xrotation Yrotation
					JOINT LeftArm
					{
						OFFSET 0.096243 -0.008695 -0.014012 
						CHANNELS 3 Zrotation Xrotation Yrotation
						JOINT LeftForeArm
						{
							OFFSET 0.216305 0.000000 0.000000 
							CHANNELS 3 Xrotation Zrotation Yrotation
							JOINT LeftHand
							{
								OFFSET 0.217764 0.000000 0.000000 
								CHANNELS 3 Zrotation Yrotation Xrotation
								JOINT LeftHandThumb1
								{
									OFFSET 0.018582 -0.007835 0.020476 
									CHANNELS 3 Zrotation Xrotation Yrotation
									JOINT LeftHandThumb2
									{
										OFFSET 0.026269 -0.007835 0.022186 
										CHANNELS 3 Zrotation Xrotation Yrotation
										JOINT LeftHandThumb3
										{
											OFFSET 0.035170 -0.010504 0.017018 
											CHANNELS 3 Zrotation Xrotation Yrotation
											End Site
											{
												OFFSET 0.020312 -0.007813 0.007813 
											}
										}
									}
								}
								JOINT LeftHandMiddle1
								{
									OFFSET 0.081749 0.004803 0.003358 
									CHANNELS 3 Zrotation Xrotation Yrotation
									JOINT LeftHandMiddle2
									{
										OFFSET 0.045251 0.000000 0.000000 
										CHANNELS 3 Zrotation Xrotation Yrotation
										JOINT LeftHandMiddle3
										{
											OFFSET 0.029009 0.000000 0.000000 
											CHANNELS 3 Zrotation Xrotation Yrotation
											End Site
											{
												OFFSET 0.017969 0.000000 0.000000 
											}
										}
									}
								}
								JOINT LeftHandIndex1
								{
									OFFSET 0.081207 0.004803 0.021137 
									CHANNELS 3 Zrotation Xrotation Yrotation
									JOINT LeftHandIndex2
									{
										OFFSET 0.043354 0.000000 0.000000 
										CHANNELS 3 Zrotation Xrotation Yrotation
										JOINT LeftHandIndex3
										{
											OFFSET 0.026493 0.000000 0.000000 
											CHANNELS 3 Zrotation Xrotation Yrotation
											End Site
											{
												OFFSET 0.019531 0.000000 0.000000 
											}
										}
									}
								}
								JOINT LeftHandRing1
								{
									OFFSET 0.080666 0.002509 -0.014652 
									CHANNELS 3 Zrotation Xrotation Yrotation
									JOINT LeftHandRing2
									{
										OFFSET 0.042541 0.000000 0.000000 
										CHANNELS 3 Zrotation Xrotation Yrotation
										JOINT LeftHandRing3
										{
											OFFSET 0.029009 0.000000 0.000000 
											CHANNELS 3 Zrotation Xrotation Yrotation
											End Site
											{
												OFFSET 0.015625 0.000000 0.000000 
											}
										}
									}
								}
								JOINT LeftHandPinky1
								{
									OFFSET 0.078227 -0.000612 -0.030993 
									CHANNELS 3 Zrotation Xrotation Yrotation
									JOINT LeftHandPinky2
									{
										OFFSET 0.028721 0.000000 0.000000 
										CHANNELS 3 Zrotation Xrotation Yrotation
										JOINT LeftHandPinky3
										{
											OFFSET 0.021963 0.000000 0.000000 
											CHANNELS 3 Zrotation Xrotation Yrotation
											End Site
											{
												OFFSET 0.022656 0.000000 0.000000 
											}
										}
									}
								}
							}
						}
					}
				}
				JOINT RightShoulder
				{
					OFFSET -0.047970 0.079586 -0.029634 
					CHANNELS 3 Zrotation Xrotation Yrotation
					JOINT RightArm
					{
						OFFSET -0.096274 -0.008695 -0.014012 
						CHANNELS 3 Zrotation Xrotation Yrotation
						JOINT RightForeArm
						{
							OFFSET -0.216305 0.000000 0.000000 
							CHANNELS 3 Xrotation Zrotation Yrotation
							JOINT RightHand
							{
								OFFSET -0.217764 0.000000 0.000000 
								CHANNELS 3 Zrotation Yrotation Xrotation
								JOINT RightHandThumb1
								{
									OFFSET -0.019670 -0.007318 0.019638 
									CHANNELS 3 Zrotation Xrotation Yrotation
									JOINT RightHandThumb2
									{
										OFFSET -0.025498 -0.008492 0.023179 
										CHANNELS 3 Zrotation Xrotation Yrotation
										JOINT RightHandThumb3
										{
											OFFSET -0.034504 -0.010705 0.016680 
											CHANNELS 3 Zrotation Xrotation Yrotation
											End Site
											{
												OFFSET -0.020312 -0.007813 0.007813 
											}
										}
									}
								}
								JOINT RightHandIndex1
								{
									OFFSET -0.081770 0.003825 0.021187 
									CHANNELS 3 Zrotation Xrotation Yrotation
									JOINT RightHandIndex2
									{
										OFFSET -0.042006 0.000000 0.000000 
										CHANNELS 3 Zrotation Xrotation Yrotation
										JOINT RightHandIndex3
										{
											OFFSET -0.026449 0.000000 0.000000 
											CHANNELS 3 Zrotation Xrotation Yrotation
											End Site
											{
												OFFSET -0.020312 0.000000 0.000000 
											}
										}
									}
								}
								JOINT RightHandMiddle1
								{
									OFFSET -0.084059 0.003825 0.003342 
									CHANNELS 3 Zrotation Xrotation Yrotation
									JOINT RightHandMiddle2
									{
										OFFSET -0.043881 0.000000 0.000000 
										CHANNELS 3 Zrotation Xrotation Yrotation
										JOINT RightHandMiddle3
										{
											OFFSET -0.029191 0.000000 0.000000 
											CHANNELS 3 Zrotation Xrotation Yrotation
											End Site
											{
												OFFSET -0.017969 0.000000 0.000000 
											}
										}
									}
								}
								JOINT RightHandRing1
								{
									OFFSET -0.081798 0.003030 -0.015127 
									CHANNELS 3 Zrotation Xrotation Yrotation
									JOINT RightHandRing2
									{
										OFFSET -0.042198 0.000000 0.000000 
										CHANNELS 3 Zrotation Xrotation Yrotation
										JOINT RightHandRing3
										{
											OFFSET -0.026497 0.000000 0.000000 
											CHANNELS 3 Zrotation Xrotation Yrotation
											End Site
											{
												OFFSET -0.017188 0.000000 0.000000 
											}
										}
									}
								}
								JOINT RightHandPinky1
								{
									OFFSET -0.077902 -0.000930 -0.030891 
									CHANNELS 3 Zrotation Xrotation Yrotation
									JOINT RightHandPinky2
									{
										OFFSET -0.028538 0.000000 0.000000 
										CHANNELS 3 Zrotation Xrotation Yrotation
										JOINT RightHandPinky3
										{
											OFFSET -0.021734 0.000000 0.000000 
											CHANNELS 3 Zrotation Xrotation Yrotation
											End Site
											{
												OFFSET -0.022656 0.000000 0.000000 
											}
										}
									}
								}
							}
						}
					}
				}
			}
		}
	}
	JOINT LeftUpLeg
	{
		OFFSET 0.075264 -0.025573 0.000000 
		CHANNELS 3 Xrotation Yrotation Zrotation
		JOINT LeftLeg
		{
			OFFSET 0.000000 -0.326016 -0.013516 
			CHANNELS 3 Xrotation Yrotation Zrotation
			JOINT LeftFoot
			{
				OFFSET 0.000098 -0.306172 -0.006623 
				CHANNELS 3 Xrotation Yrotation Zrotation
				JOINT LeftToeBase
				{
					OFFSET -0.001432 -0.095259 0.064705 
					CHANNELS 3 Xrotation Yrotation Zrotation
					End Site
					{
						OFFSET 0.000000 0.000000 0.079438 
					}
				}
			}
		}
	}
	JOINT RightUpLeg
	{
		OFFSET -0.075264 -0.025573 0.000000 
		CHANNELS 3 Xrotation Yrotation Zrotation
		JOINT RightLeg
		{
			OFFSET 0.000000 -0.326016 -0.013516 
			CHANNELS 3 Xrotation Yrotation Zrotation
			JOINT RightFoot
			{
				OFFSET 0.000098 -0.306172 -0.006623 
				CHANNELS 3 Xrotation Yrotation Zrotation
				JOINT RightToeBase
				{
					OFFSET -0.001432 -0.095259 0.064705 
					CHANNELS 3 Xrotation Yrotation Zrotation
					End Site
					{
						OFFSET 0.000025 0.000000 0.079438 
					}
				}
			}
		}
	}
}
MOTION
Frames: 5
Frame Time: 0.033333
0.041441 0.738633 0.635707 -2.669700 0.314700 5.446900 3.887300 -0.153800 -0.348700 1.362200 -0.309800 -1.536400 -3.131600 -0.300100 -2.049800 -4.196100 0.557900 -3.354000 -0.000000 0.000000 -0.000000 -1.856500 0.653200 -1.282400 -7.471200 7.720200 -13.413300 -70.039101 -0.248800 8.804000 -0.000000 0.000000 -27.673401 -5.539800 0.577100 43.381500 30.108400 31.725201 4.404500 -19.907499 -15.093500 7.478000 8.150000 5.643100 -16.749599 -13.408800 -0.723400 3.227700 -27.115700 -0.375300 0.661900 -15.912400 -0.019600 0.228700 -5.779100 9.120200 -0.430200 -17.001200 -0.208100 0.730100 -3.877000 -0.019000 -0.217500 -30.677200 -1.439700 1.503100 -16.965799 0.073200 0.298200 -12.323400 0.165700 -0.033900 -28.221399 -1.989500 7.904500 -29.143499 -0.135200 -0.280700 -6.774600 -0.064500 0.835100 0.006100 -0.394900 9.937300 74.932198 9.379600 -2.184200 0.000000 0.000000 44.821201 -5.555900 30.065399 32.612202 -7.824500 22.808800 -15.364400 -13.496700 -1.997000 8.240600 4.686100 -15.045600 16.033600 5.932200 -0.169500 4.627700 26.577499 -0.452500 -1.206800 17.090200 -0.120900 0.890900 18.630199 -1.002600 0.414500 38.265400 -0.772900 -1.288700 31.242100 -0.213700 -0.644600 36.964199 -2.052400 -3.182500 24.080500 0.001800 -0.777100 20.323400 0.091700 1.456000 42.193901 -2.598900 -4.537000 49.281200 -0.607900 -0.525100 43.386002 -0.791000 1.564700 -9.547700 6.487200 -8.835600 18.907700 -1.189400 -0.208500 -7.047600 -0.942800 4.760700 -3.878100 0.000000 -0.000000 -26.886000 -2.575000 -6.588000 62.786098 9.067600 -5.021400 2.509200 -13.916800 5.106300 -0.437200 -0.012800 1.372600 
0.038914 0.739938 0.674116 -1.141700 0.821800 4.447700 3.293900 -0.611200 0.176700 1.409500 -1.372700 -1.154500 -3.107600 -1.351300 -1.700500 -3.769900 0.668500 -3.147300 -0.000000 0.000000 -0.000000 -1.506800 1.530200 -1.395200 -5.737100 7.777300 -15.734800 -68.884697 2.359600 5.891400 0.000000 -0.000000 -29.874300 -1.915100 -3.278900 40.495300 29.324699 31.930799 4.655500 -19.579700 -15.159200 6.844300 10.959800 5.828800 -17.174900 -11.429500 -0.618100 3.169500 -27.037500 -0.374200 0.662600 -15.833700 -0.019500 0.228900 -2.328600 8.851700 -0.460800 -17.035801 -0.208500 0.729900 -3.912300 -0.019000 -0.217600 -29.067400 -1.371900 1.680000 -16.964600 0.073200 0.298200 -12.322700 0.165700 -0.033900 -26.718901 -1.910000 7.560900 -29.250500 -0.135600 -0.281200 -6.881600 -0.065400 0.834800 0.922900 -0.348100 9.294900 75.520798 6.581600 -4.866700 0.000000 -0.000000 41.764900 -2.923400 29.357700 37.630699 -7.482300 23.234100 -15.438700 -13.779500 -1.884600 8.577700 4.724100 -15.034300 15.832700 5.531600 -0.152500 4.310700 26.765499 -0.456400 -1.209000 17.278299 -0.122000 0.887500 17.843100 -0.961500 -0.041800 38.236301 -0.772200 -1.288600 31.214500 -0.213400 -0.644200 36.580200 -2.033800 -3.256500 24.015200 0.002000 -0.775900 20.257999 0.091600 1.457300 41.938301 -2.593300 -4.616600 49.361599 -0.609300 -0.525700 43.466400 -0.792600 1.564100 -6.450400 7.451800 -7.403000 18.388399 -4.268800 -0.329000 -9.076600 -1.063800 4.951000 -4.665600 0.000000 -0.000000 -31.491301 -2.614300 -4.781900 54.401501 9.463200 -4.850600 1.140300 -16.163500 5.882700 -2.487300 -0.014800 0.299900 
0.034883 0.739531 0.713309 0.795300 1.117500 3.022700 2.713800 -1.033900 0.829400 1.636700 -2.399800 -0.754100 -2.915100 -2.373500 -1.350100 -3.736300 0.558800 -2.629100 -0.000000 0.000000 -0.000000 -1.365900 1.849400 -1.263700 -3.140700 7.707800 -18.365101 -67.621902 3.429500 3.417400 0.000000 0.000000 -32.937302 -1.113800 -6.544400 36.860699 28.472401 32.160099 4.975400 -19.419100 -15.238500 6.091700 11.726200 5.822600 -17.872601 -10.786100 -0.583800 3.166500 -27.035101 -0.374200 0.662600 -15.831200 -0.019500 0.228900 -0.565500 8.396700 -0.393700 -17.036900 -0.208600 0.729900 -3.913700 -0.019000 -0.217600 -28.452801 -1.348400 1.799400 -16.965401 0.073200 0.298200 -12.323900 0.165700 -0.033900 -26.277000 -1.886300 7.425500 -29.269800 -0.135700 -0.281300 -6.900900 -0.065500 0.834700 2.591300 -0.316100 7.779500 75.039398 4.159600 -7.671300 0.000000 0.000000 38.384800 -0.649100 27.002800 41.785702 -7.387000 23.445499 -16.057199 -14.126500 -1.686100 9.342100 4.777800 -15.018400 15.551900 4.101500 -0.081300 4.046300 26.923500 -0.459800 -1.210800 17.436399 -0.122900 0.884600 16.072300 -0.861800 -0.546900 38.215900 -0.771700 -1.288500 31.195999 -0.213200 -0.643900 35.442299 -1.977900 -3.460700 23.892300 0.002500 -0.773800 20.135099 0.091200 1.459800 40.723900 -2.570900 -5.041500 49.336102 -0.608900 -0.525500 43.440899 -0.792100 1.564200 -3.852800 8.514300 -4.992300 18.949100 -6.983700 -0.398000 -11.140500 -2.998300 4.890600 -5.839300 0.000000 -0.000000 -35.607201 -4.156500 -3.150800 43.582699 9.165400 -4.953400 2.033000 -17.036800 6.743400 -1.379800 -0.000000 0.000000 
0.031209 0.736181 0.754258 2.628900 1.093900 1.977500 2.233900 -1.427700 0.931000 2.147100 -3.147500 -0.249800 -2.418000 -3.147700 -0.901500 -4.162000 0.382100 -2.205400 -0.000000 0.000000 -0.000000 -1.535700 1.704300 -0.995300 -0.357800 7.502800 -21.151400 -66.215897 3.165000 1.756100 -0.000000 0.000000 -37.251900 -0.745100 -8.610600 31.014299 27.560600 32.407501 5.356300 -19.337900 -15.324600 5.253400 11.956000 5.744400 -18.903200 -10.787000 -0.582500 3.048300 -27.049999 -0.374400 0.662500 -15.845600 -0.019500 0.228900 0.124300 7.800100 -0.243300 -16.991899 -0.208000 0.730100 -3.868600 -0.019000 -0.217500 -28.418699 -1.353100 1.925000 -16.966700 0.073200 0.298200 -12.325500 0.165700 -0.033900 -26.329500 -1.886000 7.275000 -29.212299 -0.135400 -0.281100 -6.843400 -0.065000 0.834900 4.368000 -0.373700 5.652700 73.911797 2.266000 -11.151800 -0.000000 0.000000 35.818600 1.496600 23.066500 44.421902 -7.123500 23.855801 -17.061199 -14.725000 -1.623000 10.586300 4.842900 -14.999000 15.215300 2.035800 0.035600 4.008400 27.305901 -0.467800 -1.215000 17.818800 -0.125100 0.877500 13.830900 -0.732900 -0.978800 38.176800 -0.770700 -1.288300 31.159000 -0.212800 -0.643400 33.625198 -1.881600 -3.666700 23.905899 0.002500 -0.774000 20.148500 0.091200 1.459500 39.319901 -2.515900 -5.282300 49.584000 -0.613300 -0.527500 43.688801 -0.796800 1.562400 -1.256100 9.523600 -2.689300 20.196501 -7.007400 -0.522600 -13.204600 -7.169200 4.385300 -7.600200 0.000000 -0.000000 -38.213100 -7.373500 -2.622100 31.267900 9.425000 -4.983600 0.995100 -13.756400 6.520800 -2.722200 0.000000 0.000000 
0.027708 0.729014 0.798624 4.537100 0.703200 1.712600 1.767300 -2.088100 0.053200 2.842300 -3.676500 0.410200 -1.705800 -3.726600 -0.299900 -4.920200 0.208300 -1.934000 -0.000000 0.000000 -0.000000 -2.114400 1.357700 -0.825100 2.930600 7.092300 -24.181200 -65.721703 1.516400 1.120300 -0.000000 0.000000 -43.052200 3.075300 -8.971200 27.322599 26.598700 32.667400 5.790200 -19.017200 -15.409600 4.395100 11.138400 5.608600 -19.709200 -11.877000 -0.638400 2.851000 -27.081200 -0.374800 0.662200 -15.876100 -0.019600 0.228800 -0.802900 7.050800 -0.027500 -16.891199 -0.206700 0.730600 -3.767400 -0.019000 -0.217300 -29.320400 -1.389200 1.778000 -17.065701 0.073700 0.298000 -12.424300 0.166700 -0.034000 -27.256599 -1.930400 7.192200 -29.162300 -0.135300 -0.280800 -6.793500 -0.064600 0.835100 5.644300 -0.504600 3.603100 72.842499 0.581900 -15.889600 0.000000 -0.000000 34.663601 3.727800 17.858200 45.283001 -6.958200 24.136801 -18.405399 -15.272000 -1.495300 11.828500 4.897200 -14.983000 14.938600 0.172100 0.151900 4.228100 27.456900 -0.471000 -1.216700 17.969900 -0.126000 0.874800 11.875300 -0.620200 -1.315800 38.144402 -0.769900 -1.288100 31.129200 -0.212500 -0.642900 31.841299 -1.787700 -3.895000 24.043301 0.001900 -0.776500 20.285700 0.091600 1.456800 38.098499 -2.463500 -5.455200 49.857201 -0.618100 -0.529700 43.961899 -0.802000 1.560300 1.532600 10.326700 -1.185200 22.263500 -7.001400 -0.264600 -15.062800 -10.220200 3.801000 -10.366200 0.000000 -0.000000 -38.865799 -10.444300 -2.961900 21.851900 9.082100 -4.617500 -2.697800 -11.728200 7.866600 -5.225800 0.000000 -0.000000 
